<?xml version="1.0" standalone="no"?>
<!DOCTYPE svg PUBLIC "-//W3C//DTD SVG 20010904//EN"
 "http://www.w3.org/TR/2001/REC-SVG-20010904/DTD/svg10.dtd">
<svg version="1.0" xmlns="http://www.w3.org/2000/svg"
 width="545.000000pt" height="545.000000pt" viewBox="0 0 545.000000 545.000000"
 preserveAspectRatio="xMidYMid meet">
<metadata>
Created by potrace 1.14, written by Peter Selinger 2001-2017
</metadata>
<g transform="translate(0.000000,545.000000) scale(0.100000,-0.100000)"
fill="#000000" stroke="none">
<path d="M0 2725 l0 -2725 2725 0 2725 0 0 2725 0 2725 -2725 0 -2725 0 0
-2725z m490 352 c0 -580 2 -602 51 -699 34 -67 113 -142 182 -174 56 -26 72
-29 172 -29 98 0 116 3 167 27 107 50 181 138 219 259 18 56 19 100 19 610 l0
549 125 0 125 0 0 -825 0 -826 -122 3 -123 3 0 68 c0 37 -4 67 -8 67 -5 0 -26
-15 -48 -34 -51 -43 -149 -92 -224 -111 -76 -19 -241 -19 -324 0 -156 37 -315
163 -385 305 -72 147 -69 121 -73 768 l-4 582 125 0 126 0 0 -543z m1480 248
c0 -162 3 -295 6 -295 3 0 26 18 52 39 99 84 235 131 373 131 179 0 317 -58
444 -184 67 -65 90 -97 123 -166 52 -109 66 -182 60 -317 -6 -133 -42 -233
-118 -335 -123 -163 -296 -248 -509 -248 -145 0 -253 35 -368 121 -29 21 -55
39 -58 39 -3 0 -5 -32 -5 -70 l0 -71 -117 3 -118 3 -3 823 -2 822 120 0 120 0
0 -295z m1988 -163 c242 -89 391 -310 392 -579 l0 -83 -487 -2 -488 -3 3 -25
c4 -37 47 -126 83 -171 70 -88 186 -141 310 -141 128 0 231 44 313 132 l37 40
82 -62 c45 -34 84 -63 86 -65 2 -1 -29 -36 -71 -75 -123 -120 -269 -178 -448
-178 -488 0 -783 477 -568 918 48 98 169 217 269 266 106 50 183 66 304 62 81
-3 116 -10 183 -34z m1120 20 c9 -6 12 -36 10 -113 l-3 -104 -90 -5 c-135 -8
-192 -46 -248 -167 -21 -47 -22 -60 -25 -436 l-3 -388 -117 3 -117 3 0 600 0
600 115 0 115 0 3 -68 3 -68 44 45 c59 59 124 89 210 97 38 3 75 7 80 7 6 1
16 -2 23 -6z"/>
<path d="M2287 2979 c-55 -13 -132 -55 -178 -96 -159 -144 -184 -381 -59 -555
79 -111 193 -169 335 -170 203 -1 368 140 406 345 46 250 -157 490 -411 486
-30 -1 -72 -5 -93 -10z"/>
<path d="M3631 2976 c-70 -23 -147 -82 -190 -147 -37 -56 -68 -126 -59 -134 2
-3 166 -5 364 -5 l359 -1 -3 23 c-9 79 -120 210 -212 251 -58 27 -196 33 -259
13z"/>
</g>
</svg>
